<?xml version="1.0" encoding="UTF-8" standalone="no"?>
<!-- Created with Inkscape (http://www.inkscape.org/) -->

<svg
   width="300mm"
   height="100mm"
   viewBox="0 0 300 100"
   version="1.1"
   id="svg1"
   xml:space="preserve"
   inkscape:version="1.3 (0e150ed6c4, 2023-07-21)"
   sodipodi:docname="logo.svg"
   xmlns:inkscape="http://www.inkscape.org/namespaces/inkscape"
   xmlns:sodipodi="http://sodipodi.sourceforge.net/DTD/sodipodi-0.dtd"
   xmlns="http://www.w3.org/2000/svg"
   xmlns:svg="http://www.w3.org/2000/svg"><sodipodi:namedview
     id="namedview1"
     pagecolor="#ffffff"
     bordercolor="#000000"
     borderopacity="0.25"
     inkscape:showpageshadow="2"
     inkscape:pageopacity="0.0"
     inkscape:pagecheckerboard="0"
     inkscape:deskcolor="#d1d1d1"
     inkscape:document-units="mm"
     inkscape:zoom="1"
     inkscape:cx="708"
     inkscape:cy="81.5"
     inkscape:window-width="1920"
     inkscape:window-height="1009"
     inkscape:window-x="-8"
     inkscape:window-y="-8"
     inkscape:window-maximized="1"
     inkscape:current-layer="layer1" /><defs
     id="defs1" /><g
     inkscape:label="图层 1"
     inkscape:groupmode="layer"
     id="layer1"><path
       d="M 98.834527,9.5641124 C 98.185723,7.6176994 97.104383,5.8875542 95.806775,4.3736768 93.427824,1.7784589 90.183803,0.26458333 86.939781,0.26458333 H 13.192354 c -0.648803,0 -1.08134,0 -1.513876,0.21626768 C 8.4344565,0.69711869 5.4067028,2.4272638 3.4602902,4.806214 1.5138777,7.1851622 0.21626689,9.9966477 -3.3666667e-7,13.024402 V 68.38904 c 0,0.432534 0,0.865071 0.21626722666667,1.513877 0.21626972,2.811485 1.29761081,5.406702 3.02775491,7.353115 1.9464138,2.595217 4.9741662,4.325362 8.2181872,4.757899 1.297609,0.216268 2.595217,0.216268 3.892827,0.216268 H 47.362717 V 94.557481 H 16.868911 c -1.081339,0 -2.162679,0.865072 -2.378948,1.730145 -0.432537,1.297608 0,2.595218 1.297609,3.244021 0.216267,0.21627 1.081339,0.21627 1.730145,0.21627 h 64.664166 c 0.648804,0 1.08134,0 1.730144,-0.21627 1.081341,-0.432536 1.730146,-1.730143 1.513878,-2.811485 -0.216269,-1.08134 -0.865072,-1.946413 -1.730145,-2.162681 -0.432537,-0.216268 -1.08134,-0.216268 -1.513877,-0.216268 h -29.845 V 82.013931 h 32.872753 c 1.081342,0 1.946412,0 3.027755,-0.216269 1.946412,-0.216268 3.892826,-1.08134 5.406702,-2.162681 2.595217,-1.946413 4.757897,-4.974165 5.406703,-8.218189 0.216267,-0.865072 0.216267,-1.730145 0.432537,-2.595218 V 13.456938 C 99.267063,12.15933 99.267063,10.86172 98.834527,9.5641124 Z M 78.289057,64.279946 H 26.600978 c -2.162682,0 -3.676558,-1.513878 -3.676558,-3.676559 V 23.62154 c 0,-2.162681 1.513876,-3.676559 3.676558,-3.676559 2.162681,0 3.676557,1.513878 3.676557,3.676559 v 33.305289 h 48.011522 c 2.162681,0 3.676558,1.513876 3.676558,3.676558 0,2.162681 -1.513877,3.676559 -3.676558,3.676559 z m 3.676558,-29.628733 c 0,2.162681 -1.513877,3.676558 -3.676558,3.676558 -2.162681,0 -3.676558,-1.513877 -3.676558,-3.676558 v -2.162681 l -16.00384,16.003842 c -0.648805,0.648803 -1.513878,1.081339 -2.595218,1.081339 -1.081341,0 -1.946414,-0.432536 -2.595218,-1.081339 l -4.757899,-4.974169 -8.434456,8.434457 c -0.648805,0.648805 -1.513878,1.081342 -2.595218,1.081342 -2.162681,0 -3.676557,-1.513878 -3.676557,-3.676558 0,-1.081342 0.432536,-1.946414 1.081342,-2.595218 L 46.065107,35.732553 c 0.648804,-0.648804 1.513877,-1.08134 2.595217,-1.08134 1.081341,0 1.946414,0.432536 2.595218,1.08134 l 4.757899,4.757899 13.408622,-13.408623 h -2.16268 c -2.162681,0 -3.676559,-1.513877 -3.676559,-3.676558 0,-2.162682 1.513878,-3.676558 3.676559,-3.676558 h 11.029674 c 2.162681,0 3.676558,1.513879 3.676558,3.676558 z"
       p-id="4138"
       fill="#1296db"
       id="path1"
       style="stroke-width:0.0971517" /><text
       xml:space="preserve"
       style="font-size:47.8786px;fill:#ff0000;stroke:#000000;stroke-width:0.942493"
       x="100.53289"
       y="48.592312"
       id="text1"><tspan
         sodipodi:role="line"
         id="tspan1"
         style="font-style:normal;font-variant:normal;font-weight:normal;font-stretch:normal;font-size:47.8786px;font-family:STXinwei;-inkscape-font-specification:'STXinwei, Normal';font-variant-ligatures:normal;font-variant-caps:normal;font-variant-numeric:normal;font-variant-east-asian:normal;fill:#1296db;fill-opacity:1;stroke:none;stroke-width:0.942493"
         x="100.53289"
         y="48.592312">成绩分析</tspan></text><text
       xml:space="preserve"
       style="font-size:30.1252px;fill:#ff0000;stroke:#000000;stroke-width:0.593016"
       x="104.69386"
       y="85.820366"
       id="text1-3"><tspan
         sodipodi:role="line"
         id="tspan1-4"
         style="font-style:normal;font-variant:normal;font-weight:normal;font-stretch:normal;font-size:30.1252px;font-family:STXinwei;-inkscape-font-specification:'STXinwei, Normal';font-variant-ligatures:normal;font-variant-caps:normal;font-variant-numeric:normal;font-variant-east-asian:normal;fill:#1296db;fill-opacity:1;stroke:none;stroke-width:0.593016"
         x="104.69386"
         y="85.820366">Score Analysis</tspan></text></g></svg>
